<?xml version="1.0" standalone="no"?>
<!DOCTYPE svg PUBLIC "-//W3C//DTD SVG 20010904//EN"
 "http://www.w3.org/TR/2001/REC-SVG-20010904/DTD/svg10.dtd">
<svg version="1.0" xmlns="http://www.w3.org/2000/svg"
 width="3000.000000pt" height="3000.000000pt" viewBox="0 0 3000.000000 3000.000000"
 preserveAspectRatio="xMidYMid meet">

<g transform="translate(0.000000,3000.000000) scale(0.100000,-0.100000)"
fill="#000000" stroke="none">
<path d="M7465 17655 c-5 -2 -55 -9 -110 -15 -188 -20 -230 -28 -380 -65 -133
-33 -324 -97 -425 -142 -109 -49 -278 -138 -364 -192 -189 -119 -450 -347
-567 -496 -34 -44 -66 -82 -69 -85 -10 -7 -162 -238 -192 -290 -160 -284 -265
-556 -329 -860 -58 -279 -76 -470 -85 -932 -7 -341 -3 -376 51 -434 17 -17 48
-37 70 -43 29 -8 508 -11 1667 -11 894 0 1633 -3 1642 -6 9 -3 16 -12 16 -20
0 -27 49 -92 86 -114 55 -34 135 -33 196 3 35 20 52 39 69 77 12 27 23 51 23
52 1 2 1457 5 3236 8 l3235 5 31 22 c17 12 40 35 50 50 18 27 19 80 19 1710
l0 1682 -21 28 c-11 15 -36 38 -54 51 l-33 22 -684 0 c-755 0 -711 4 -772 -65
l-31 -36 0 -917 c0 -504 -4 -923 -8 -930 -7 -9 -48 -12 -173 -10 l-164 3 -5
920 -5 920 -24 39 c-13 21 -38 47 -55 57 -30 18 -62 19 -719 19 -573 0 -693
-2 -715 -14 -35 -18 -77 -64 -88 -96 -5 -14 -11 -434 -14 -935 l-5 -910 -165
0 -165 0 -5 932 -5 932 -30 31 c-60 63 -20 60 -766 60 l-682 0 -44 -25 c-84
-50 -77 26 -83 -1010 l-5 -920 -1467 -3 c-1236 -2 -1468 0 -1468 12 0 34 186
175 303 229 33 15 98 39 145 53 172 50 256 54 1176 54 837 0 850 0 892 21 33
15 49 32 68 72 l26 51 0 663 c0 706 0 703 -48 756 -43 48 -23 47 -1026 46
-517 0 -945 -2 -951 -4z m5219 -665 c18 -41 52 -113 74 -160 l42 -86 123 -61
c67 -34 143 -71 170 -83 26 -11 47 -27 47 -35 0 -8 -19 -23 -42 -33 -24 -11
-99 -47 -168 -80 l-126 -61 -51 -103 c-28 -57 -61 -128 -73 -158 -27 -64 -38
-80 -55 -80 -13 0 -75 113 -76 139 0 9 -22 57 -48 106 l-47 90 -90 47 c-49 26
-123 62 -164 79 -69 29 -89 43 -90 61 0 8 183 98 202 98 7 0 40 15 73 33 56
30 63 37 107 122 26 50 59 119 74 155 34 81 42 92 66 88 13 -2 30 -28 52 -78z
m-4827 -1697 c122 -267 118 -260 172 -287 28 -15 67 -26 89 -26 43 0 170 61
285 138 113 76 159 93 242 94 79 0 112 -12 170 -63 55 -49 101 -119 124 -189
19 -58 20 -70 9 -115 -16 -64 -45 -112 -105 -170 -53 -51 -167 -131 -225 -159
l-38 -17 0 -94 c0 -88 -1 -95 -20 -95 -19 0 -20 7 -20 103 0 56 4 107 8 113 4
5 51 37 105 69 102 62 197 148 228 206 25 48 24 129 -2 182 -54 107 -154 187
-234 187 -45 0 -138 -42 -239 -108 -43 -29 -107 -66 -142 -83 -35 -18 -64 -36
-64 -40 0 -5 27 -22 60 -39 33 -17 60 -33 60 -37 0 -11 -33 -43 -45 -43 -12 0
-22 -4 -192 -85 l-101 -49 -66 -133 c-36 -74 -66 -137 -66 -142 0 -15 -25 -61
-36 -65 -19 -7 -28 6 -98 154 -37 80 -73 156 -79 169 -7 13 -18 26 -27 28 -90
30 -315 146 -315 163 0 16 -4 13 180 100 72 34 138 69 148 78 15 13 97 174 97
190 0 4 15 37 33 74 43 91 58 90 104 -9z"/>
<path d="M17704 17618 c-22 -24 -45 -54 -52 -68 -9 -19 -13 -248 -15 -935 l-2
-910 -905 -2 c-898 -3 -905 -3 -946 -24 -23 -11 -52 -35 -65 -52 l-24 -32 0
-695 c0 -681 0 -696 20 -730 12 -19 36 -43 55 -55 35 -20 43 -20 1701 -20
1606 0 1667 1 1700 19 19 10 45 33 57 52 l22 34 0 1677 c0 1657 0 1678 -20
1711 -11 18 -34 41 -52 52 -32 19 -52 20 -733 20 l-701 0 -40 -42z m1147
-2625 c5 -16 28 -66 52 -112 35 -70 49 -87 85 -107 23 -13 48 -24 55 -24 7 0
36 -12 65 -26 54 -27 70 -59 35 -70 -10 -4 -59 -26 -109 -49 l-92 -44 -52
-105 c-28 -58 -55 -106 -60 -106 -12 0 -18 9 -75 119 -49 94 -51 96 -115 127
-36 17 -84 40 -107 49 -24 10 -43 20 -43 22 0 14 23 43 34 43 16 0 165 76 186
95 9 8 21 31 29 52 28 86 73 163 93 163 5 0 13 -12 19 -27z"/>
<path d="M19664 17621 c-26 -25 -45 -54 -53 -82 -9 -34 -11 -433 -9 -1684 l3
-1640 23 -41 c17 -32 35 -47 72 -63 l49 -21 2303 2 c2182 3 2305 4 2335 21 18
9 43 36 55 60 22 39 23 56 26 267 4 260 -11 624 -33 790 -22 171 -91 488 -116
532 -5 10 -9 27 -9 37 0 11 -4 23 -10 26 -5 3 -10 15 -10 26 0 10 -4 27 -9 37
-4 9 -14 33 -21 52 -34 95 -47 127 -122 275 -44 88 -105 198 -136 243 -32 46
-62 92 -68 103 -6 10 -18 27 -27 37 -10 10 -17 22 -17 26 0 9 -49 68 -130 159
-70 79 -271 270 -339 322 -29 22 -67 52 -85 68 -19 15 -36 27 -39 27 -4 0 -44
25 -90 55 -86 56 -255 145 -337 178 -25 10 -53 22 -62 28 -10 5 -27 9 -37 9
-11 0 -23 5 -26 10 -3 6 -14 10 -24 10 -9 0 -35 9 -57 19 -38 18 -281 84 -374
102 -46 9 -124 20 -265 39 -52 6 -470 10 -1200 10 l-1121 0 -40 -39z m2185
-1582 c241 -22 469 -118 614 -257 90 -88 134 -82 -598 -82 l-645 0 -11 28 c-6
15 -9 85 -7 165 2 109 6 140 18 147 20 13 486 13 629 -1z"/>
<path d="M5155 13742 c-51 -17 -101 -61 -128 -113 l-27 -54 0 -633 c0 -687 -2
-664 56 -739 22 -29 37 -39 109 -69 11 -5 711 -11 1555 -14 l1535 -5 65 -96
c129 -191 218 -314 244 -339 42 -38 42 -38 203 205 47 72 102 154 121 183 l35
52 3124 0 c2267 0 3136 3 3168 11 26 7 63 28 89 50 80 71 77 39 74 774 l-3
650 -32 46 c-18 26 -49 57 -70 70 l-38 24 -3297 3 c-3140 2 -3298 1 -3298 -15
0 -10 7 -27 15 -37 19 -25 19 -85 0 -111 -10 -12 -13 -30 -9 -51 7 -36 -20
-98 -39 -91 -7 2 -12 22 -12 45 0 46 -14 66 -38 56 -20 -7 -21 -22 -7 -60 8
-21 8 -31 -3 -41 -23 -23 -42 11 -43 81 -1 34 -8 76 -15 94 -12 28 -11 36 5
67 39 71 188 65 -1656 64 -915 -1 -1672 -4 -1683 -7z"/>
<path d="M19775 13743 c-47 -12 -105 -65 -130 -117 l-26 -54 3 -650 c3 -584 5
-652 19 -668 9 -11 24 -34 33 -51 9 -19 27 -35 41 -39 14 -3 25 -9 25 -13 0
-30 106 -31 2295 -31 2179 0 2205 0 2258 20 54 20 102 63 127 114 13 24 15
133 15 691 l0 662 -30 43 c-16 23 -48 54 -70 69 l-40 26 -2250 1 c-1237 1
-2259 -1 -2270 -3z"/>
<path d="M15795 13726 c-44 -20 -84 -64 -95 -107 -7 -25 -10 -271 -8 -706 3
-742 0 -704 70 -755 l33 -23 702 0 702 0 31 30 c63 60 60 21 60 762 0 756 2
736 -67 783 l-37 25 -680 2 c-550 2 -687 0 -711 -11z"/>
<path d="M17742 13719 c-26 -13 -55 -39 -70 -62 l-27 -41 -3 -660 c-3 -695 -2
-719 41 -767 51 -56 20 -54 712 -57 352 -2 669 0 704 3 58 6 67 11 107 51 l44
43 0 694 c0 750 2 724 -53 775 -13 12 -39 27 -58 32 -20 6 -295 10 -694 10
-655 0 -660 0 -703 -21z"/>
<path d="M8533 13654 c-7 -20 -5 -21 47 -25 40 -4 45 -2 45 16 0 17 -7 20 -43
21 -30 1 -45 -3 -49 -12z"/>
</g>
</svg>
